<svg data-name="027_APPLIANCES" viewBox="0 0 24 24" xmlns="http://www.w3.org/2000/svg"><path d="M12 17a1 1 0 0 1-.71-.3A1 1 0 0 1 11 16a1 1 0 1 1 2 0 1 1 0 0 1-.29.7 1 1 0 0 1-.71.3Z" fill="#0b6bcb" class="fill-333333"></path><path d="M12 22A10 10 0 0 1 5 4.87a1 1 0 0 1 1.42 0 1 1 0 0 1 0 1.41 8 8 0 1 0 3-1.86 1 1 0 0 1-.65-1.89A9.81 9.81 0 0 1 12 2a10 10 0 0 1 0 20Z" fill="#0b6bcb" class="fill-333333"></path><path d="M12 13a3.5 3.5 0 1 1 3.5-3.5A3.5 3.5 0 0 1 12 13Zm0-5a1.5 1.5 0 1 0 1.5 1.5A1.5 1.5 0 0 0 12 8Z" fill="#0b6bcb" class="fill-333333"></path></svg>